<?xml version="1.0" encoding="UTF-8" standalone="no"?>
<!DOCTYPE svg PUBLIC "-//W3C//DTD SVG 1.1//EN"
 "http://www.w3.org/Graphics/SVG/1.1/DTD/svg11.dtd">
<!-- Generated by graphviz version 2.50.0 (20211204.2007)
 -->
<!-- Title: G Pages: 1 -->
<svg width="148pt" height="93pt"
 viewBox="0.00 0.00 148.00 93.00" xmlns="http://www.w3.org/2000/svg" xmlns:xlink="http://www.w3.org/1999/xlink">
<g id="graph0" class="graph" transform="scale(1 1) rotate(0) translate(4 89)">
<title>G</title>
<polygon fill="white" stroke="transparent" points="-4,4 -4,-89 144,-89 144,4 -4,4"/>
<g id="clust1" class="cluster">
<title>cluster0x6000032dd3c0</title>
<polygon fill="none" stroke="black" points="44,-8 44,-77 132,-77 132,-8 44,-8"/>
<text text-anchor="middle" x="88" y="-66.6" font-family="Times,serif" font-size="8.00">Node0x6000032dd3c0</text>
</g>
<!-- Node0x6000032dd3c0 -->
<g id="node1" class="node">
<title>Node0x6000032dd3c0</title>
<polygon fill="none" stroke="black" points="44,-8.5 44,-59.5 132,-59.5 132,-8.5 44,-8.5"/>
<text text-anchor="middle" x="88" y="-49.1" font-family="Times,serif" font-size="8.00">item: 22</text>
<polyline fill="none" stroke="black" points="44,-42.5 132,-42.5 "/>
<text text-anchor="middle" x="88" y="-32.1" font-family="Times,serif" font-size="8.00">next: 0x6000032dd3c0</text>
<polyline fill="none" stroke="black" points="44,-25.5 132,-25.5 "/>
<text text-anchor="middle" x="88" y="-15.1" font-family="Times,serif" font-size="8.00">prev: 0x6000032dd3c0</text>
</g>
<!-- Node0x6000032dd3c0&#45;&gt;Node0x6000032dd3c0 -->
<g id="edge1" class="edge">
<title>Node0x6000032dd3c0:n&#45;&gt;Node0x6000032dd3c0:n</title>
<path fill="none" stroke="red" d="M43.63,-40.51C20.68,-41.51 0,-39.34 0,-34 0,-29.45 15,-27.2 33.62,-27.25"/>
<polygon fill="red" stroke="red" points="33.55,-30.75 43.63,-27.49 33.71,-23.75 33.55,-30.75"/>
</g>
</g>
</svg>
